<svg xmlns="http://www.w3.org/2000/svg" width="180.27mm" height="34.91mm" viewBox="0 0 511 98.96"><defs><style>.a{fill:#ef4362;}.b{fill:#fffbfa;}.c{fill:#2e2e2e;}</style></defs><title>RedditFeedLogo</title><path class="a" d="M49.44,99A49.48,49.48,0,1,1,99,49.52,49.49,49.49,0,0,1,49.44,99Zm5-76c3.46.74,6.79,1.43,10.1,2.19.27.06.52.54.63.88a5,5,0,0,0,5.53,3.53,4.92,4.92,0,1,0-4.43-8.11,1.49,1.49,0,0,1-1.69.54c-3.45-.72-6.9-1.4-10.35-2.08-1.76-.35-2.33,0-2.7,1.79q-1.48,7-3,14.09c-.48,2.32-.48,2.31-2.82,2.45-.4,0-.8.08-1.2.13a35.25,35.25,0,0,0-14.89,5.29c-.47.3-.85.54-1.47.11A7.18,7.18,0,1,0,20,55.57a1.66,1.66,0,0,1,.81,1.51,26.73,26.73,0,0,0,.87,5.82A19.27,19.27,0,0,0,31.81,74c12,6,24,6.05,35.89-.15,6.75-3.53,11-9,10.84-17.1a1.57,1.57,0,0,1,.7-1.07A7.14,7.14,0,1,0,71,44a1.17,1.17,0,0,1-1.62,0,32.17,32.17,0,0,0-12.16-4.86c-2-.35-4-.56-6-.84Z"/><path class="b" d="M54.42,23,51.21,38.3c2.09.28,4.08.49,6,.84A32.17,32.17,0,0,1,69.42,44,1.17,1.17,0,0,0,71,44a7.14,7.14,0,1,1,8.2,11.68,1.57,1.57,0,0,0-.7,1.07c.21,8.13-4.09,13.57-10.84,17.1C55.85,80,43.77,79.94,31.81,74A19.27,19.27,0,0,1,21.67,62.9a26.73,26.73,0,0,1-.87-5.82A1.66,1.66,0,0,0,20,55.57a7.18,7.18,0,1,1,8.18-11.79c.62.43,1,.19,1.47-.11a35.25,35.25,0,0,1,14.89-5.29c.4-.05.8-.1,1.2-.13,2.34-.14,2.34-.13,2.82-2.45q1.48-7,3-14.09c.37-1.76.94-2.14,2.7-1.79,3.45.68,6.9,1.36,10.35,2.08a1.49,1.49,0,0,0,1.69-.54,4.91,4.91,0,1,1,4.43,8.11A5,5,0,0,1,65.15,26c-.11-.34-.36-.82-.63-.88C61.21,24.4,57.88,23.71,54.42,23ZM65.8,54.74a4.94,4.94,0,1,0-9.87-.22,5.26,5.26,0,0,0,5.39,5.2A5,5,0,0,0,65.8,54.74Zm-22.88-.35a5,5,0,1,0-5,5A5,5,0,0,0,42.92,54.39Zm6.55,17.47a19.53,19.53,0,0,0,12-3.58c.63-.43.86-.91.54-1.56A1.29,1.29,0,0,0,60.38,66a3.58,3.58,0,0,0-.77.41c-6.71,4.05-13.42,4.06-20.11,0-1-.61-1.74-.6-2.23.11S37,67.88,38,68.53A19.2,19.2,0,0,0,49.47,71.86Z"/><path class="a" d="M65.8,54.74a5,5,0,0,1-4.48,5,5.26,5.26,0,0,1-5.39-5.2,4.94,4.94,0,1,1,9.87.22Z"/><path class="a" d="M42.92,54.39a5,5,0,1,1-5-4.9A5,5,0,0,1,42.92,54.39Z"/><path class="a" d="M49.47,71.86A19.2,19.2,0,0,1,38,68.53c-1-.65-1.18-1.35-.68-2.09s1.23-.72,2.23-.11c6.69,4.11,13.4,4.1,20.11,0a3.58,3.58,0,0,1,.77-.41,1.29,1.29,0,0,1,1.64.75c.32.65.09,1.13-.54,1.56A19.53,19.53,0,0,1,49.47,71.86Z"/><path class="a" d="M157.55,78.45l-10-17.73H138V78.45h-9.6V27.16h20.81a16.62,16.62,0,0,1,8.43,2.24,16.34,16.34,0,0,1,6.12,6.12A16.58,16.58,0,0,1,166,43.94a16.25,16.25,0,0,1-2.34,8.57,16.89,16.89,0,0,1-6.3,6.09l11.13,19.85ZM138,36.25V51.56h11.21a7.45,7.45,0,0,0,5.42-2.23,7.28,7.28,0,0,0,2.28-5.39,7.63,7.63,0,0,0-7.7-7.69Z"/><path class="a" d="M198.39,43.47a18,18,0,0,1,6.56,7,20.42,20.42,0,0,1,2.35,9.75,16,16,0,0,1-.3,3.22H178.72a10.58,10.58,0,0,0,11,8.21,11.67,11.67,0,0,0,5.09-1.17,9,9,0,0,0,3.7-3l7,4.1a17,17,0,0,1-6.64,5.83,20.8,20.8,0,0,1-9.34,2,21.27,21.27,0,0,1-10.4-2.49,17.43,17.43,0,0,1-7-6.88,19.9,19.9,0,0,1-2.45-9.89,19.74,19.74,0,0,1,2.45-9.82,18,18,0,0,1,6.85-6.93,19.68,19.68,0,0,1,10-2.53A17.64,17.64,0,0,1,198.39,43.47Zm.41,12.85a8.4,8.4,0,0,0-3.26-5.53,10.87,10.87,0,0,0-6.71-2,12.47,12.47,0,0,0-5.09,1,9.67,9.67,0,0,0-3.7,2.79,6.31,6.31,0,0,0-1.47,3.73Z"/><path class="a" d="M241.66,27.16h9.09V78.45h-9.09V74.94a18.37,18.37,0,0,1-5.57,3.37,17.75,17.75,0,0,1-6.37,1.17A18.71,18.71,0,0,1,220,77a16.65,16.65,0,0,1-6.41-6.89,21.51,21.51,0,0,1-2.23-9.89,21.51,21.51,0,0,1,2.23-9.89A16.94,16.94,0,0,1,220,43.39a18.54,18.54,0,0,1,9.75-2.53,17.14,17.14,0,0,1,6.34,1.21,20.89,20.89,0,0,1,5.6,3.34ZM236.35,69.4a10,10,0,0,0,3.88-3.77,10.6,10.6,0,0,0,1.43-5.49,9.91,9.91,0,0,0-3.11-7.55,10.74,10.74,0,0,0-7.66-2.93,10.15,10.15,0,0,0-10.55,10.55,10.17,10.17,0,0,0,10.55,10.55A11.06,11.06,0,0,0,236.35,69.4Z"/><path class="a" d="M287.31,27.16h9.08V78.45h-9.08V74.94a18.37,18.37,0,0,1-5.57,3.37,17.79,17.79,0,0,1-6.37,1.17A18.68,18.68,0,0,1,265.62,77a16.65,16.65,0,0,1-6.41-6.89A21.52,21.52,0,0,1,257,60.21a21.52,21.52,0,0,1,2.24-9.89,16.94,16.94,0,0,1,6.41-6.93,18.51,18.51,0,0,1,9.75-2.53,17.08,17.08,0,0,1,6.33,1.21,20.79,20.79,0,0,1,5.61,3.34ZM282,69.4a10.11,10.11,0,0,0,3.88-3.77,10.6,10.6,0,0,0,1.43-5.49,9.91,9.91,0,0,0-3.11-7.55,10.74,10.74,0,0,0-7.66-2.93,10.55,10.55,0,1,0,0,21.1A11.06,11.06,0,0,0,282,69.4Z"/><path class="a" d="M306.43,34.34A5,5,0,0,1,305,30.53a5.08,5.08,0,0,1,1.46-3.88,6.54,6.54,0,0,1,8.06,0A5.09,5.09,0,0,1,316,30.53a5,5,0,0,1-1.5,3.78,6.4,6.4,0,0,1-8,0Zm-.58,44.11V41.82h9.08V78.45Z"/><path class="a" d="M338.3,69.37a6,6,0,0,0,3.74.95,27.66,27.66,0,0,0,3.37-.22v8.35a54.44,54.44,0,0,1-5.71.37q-5.86,0-8.76-2.68t-2.89-9.63V50h-6.89V41.82h6.89v-9l9.08-3.08V41.82h8.13V50h-8.13v16Q337.13,68.41,338.3,69.37Z"/><path class="c" d="M384.54,27.16v9.09h-21.1V48.56h20.29v9.08H363.44V78.45h-9.6V27.16Z"/><path class="c" d="M417.33,43.47a18.05,18.05,0,0,1,6.55,7,20.31,20.31,0,0,1,2.35,9.75,16.83,16.83,0,0,1-.29,3.22H397.65a10.6,10.6,0,0,0,11,8.21,11.74,11.74,0,0,0,5.1-1.17,9.1,9.1,0,0,0,3.7-3l7,4.1a16.85,16.85,0,0,1-6.63,5.83,20.87,20.87,0,0,1-9.35,2A21.3,21.3,0,0,1,398,76.91,17.43,17.43,0,0,1,391,70a21,21,0,0,1,0-19.71,18,18,0,0,1,6.85-6.93,19.7,19.7,0,0,1,10-2.53A17.67,17.67,0,0,1,417.33,43.47Zm.4,12.85a8.4,8.4,0,0,0-3.26-5.53,10.85,10.85,0,0,0-6.71-2,12.47,12.47,0,0,0-5.09,1,9.67,9.67,0,0,0-3.7,2.79,6.24,6.24,0,0,0-1.46,3.73Z"/><path class="c" d="M458.65,43.47a18,18,0,0,1,6.56,7,20.42,20.42,0,0,1,2.34,9.75,16.06,16.06,0,0,1-.29,3.22H439a10.58,10.58,0,0,0,11,8.21,11.7,11.7,0,0,0,5.09-1.17,9,9,0,0,0,3.7-3l7,4.1a16.85,16.85,0,0,1-6.63,5.83,20.8,20.8,0,0,1-9.34,2,21.25,21.25,0,0,1-10.4-2.49,17.37,17.37,0,0,1-7-6.88,21,21,0,0,1,0-19.71,18,18,0,0,1,6.85-6.93,19.67,19.67,0,0,1,10-2.53A17.65,17.65,0,0,1,458.65,43.47Zm.4,12.85a8.36,8.36,0,0,0-3.26-5.53,10.82,10.82,0,0,0-6.7-2,12.44,12.44,0,0,0-5.09,1,9.59,9.59,0,0,0-3.7,2.79,6.31,6.31,0,0,0-1.47,3.73Z"/><path class="c" d="M501.92,27.16H511V78.45h-9.08V74.94a18.37,18.37,0,0,1-5.57,3.37A17.79,17.79,0,0,1,490,79.48,18.68,18.68,0,0,1,480.23,77a16.65,16.65,0,0,1-6.41-6.89,21.52,21.52,0,0,1-2.24-9.89,21.52,21.52,0,0,1,2.24-9.89,16.94,16.94,0,0,1,6.41-6.93A18.51,18.51,0,0,1,490,40.86a17.08,17.08,0,0,1,6.33,1.21,20.79,20.79,0,0,1,5.61,3.34ZM496.61,69.4a10.11,10.11,0,0,0,3.88-3.77,10.6,10.6,0,0,0,1.43-5.49,9.91,9.91,0,0,0-3.11-7.55,10.74,10.74,0,0,0-7.66-2.93,10.55,10.55,0,1,0,0,21.1A11.06,11.06,0,0,0,496.61,69.4Z"/></svg>