<svg xmlns="http://www.w3.org/2000/svg" width="34.91mm" height="34.91mm" viewBox="0 0 98.96 98.96"><defs><style>.a{fill:#ef4362;}.b{fill:#fffbfa;}</style></defs><title>Favicon</title><path class="a" d="M49.44,99A49.48,49.48,0,1,1,99,49.52,49.49,49.49,0,0,1,49.44,99Zm5-76c3.46.74,6.79,1.43,10.1,2.19.27.06.52.54.63.88a5,5,0,0,0,5.53,3.53,4.92,4.92,0,1,0-4.43-8.11,1.49,1.49,0,0,1-1.69.54c-3.45-.72-6.9-1.4-10.35-2.08-1.76-.35-2.33,0-2.7,1.79q-1.48,7-3,14.09c-.48,2.32-.48,2.31-2.82,2.45-.4,0-.8.08-1.2.13a35.25,35.25,0,0,0-14.89,5.29c-.47.3-.85.54-1.47.11A7.18,7.18,0,1,0,20,55.57a1.66,1.66,0,0,1,.81,1.51,26.73,26.73,0,0,0,.87,5.82A19.27,19.27,0,0,0,31.81,74c12,6,24,6.05,35.89-.15,6.75-3.53,11-9,10.84-17.1a1.57,1.57,0,0,1,.7-1.07A7.14,7.14,0,1,0,71,44a1.17,1.17,0,0,1-1.62,0,32.17,32.17,0,0,0-12.16-4.86c-2-.35-4-.56-6-.84Z"/><path class="b" d="M54.42,23,51.21,38.3c2.09.28,4.08.49,6,.84A32.17,32.17,0,0,1,69.42,44,1.17,1.17,0,0,0,71,44a7.14,7.14,0,1,1,8.2,11.68,1.57,1.57,0,0,0-.7,1.07c.21,8.13-4.09,13.57-10.84,17.1C55.85,80,43.77,79.94,31.81,74A19.27,19.27,0,0,1,21.67,62.9a26.73,26.73,0,0,1-.87-5.82A1.66,1.66,0,0,0,20,55.57a7.18,7.18,0,1,1,8.18-11.79c.62.43,1,.19,1.47-.11a35.25,35.25,0,0,1,14.89-5.29c.4-.05.8-.1,1.2-.13,2.34-.14,2.34-.13,2.82-2.45q1.48-7,3-14.09c.37-1.76.94-2.14,2.7-1.79,3.45.68,6.9,1.36,10.35,2.08a1.49,1.49,0,0,0,1.69-.54,4.91,4.91,0,1,1,4.43,8.11A5,5,0,0,1,65.15,26c-.11-.34-.36-.82-.63-.88C61.21,24.4,57.88,23.71,54.42,23ZM65.8,54.74a4.94,4.94,0,1,0-9.87-.22,5.26,5.26,0,0,0,5.39,5.2A5,5,0,0,0,65.8,54.74Zm-22.88-.35a5,5,0,1,0-5,5A5,5,0,0,0,42.92,54.39Zm6.55,17.47a19.53,19.53,0,0,0,12-3.58c.63-.43.86-.91.54-1.56A1.29,1.29,0,0,0,60.38,66a3.58,3.58,0,0,0-.77.41c-6.71,4.05-13.42,4.06-20.11,0-1-.61-1.74-.6-2.23.11S37,67.88,38,68.53A19.2,19.2,0,0,0,49.47,71.86Z"/><path class="a" d="M65.8,54.74a5,5,0,0,1-4.48,5,5.26,5.26,0,0,1-5.39-5.2,4.94,4.94,0,1,1,9.87.22Z"/><path class="a" d="M42.92,54.39a5,5,0,1,1-5-4.9A5,5,0,0,1,42.92,54.39Z"/><path class="a" d="M49.47,71.86A19.2,19.2,0,0,1,38,68.53c-1-.65-1.18-1.35-.68-2.09s1.23-.72,2.23-.11c6.69,4.11,13.4,4.1,20.11,0a3.58,3.58,0,0,1,.77-.41,1.29,1.29,0,0,1,1.64.75c.32.65.09,1.13-.54,1.56A19.53,19.53,0,0,1,49.47,71.86Z"/></svg>